{"title":"Azhar (2016) 720p mHD DvDRip x264 AAC 5.1 ESub -DDR - Exclusive","uid":15119899,"size":1580764376,"categoryP":"video","categoryS":"hd___movies","magnet":"?xt=urn:btih:b81ba9938df62e96319e703ae46800dbcf936626&amp;dn=Azhar+%282016%29+720p+mHD+DvDRip+x264+AAC+5.1+ESub+-DDR+-+Exclusive&amp;tr=udp%3A%2F%2Ftracker.leechers-paradise.org%3A6969&amp;tr=udp%3A%2F%2Fzer0day.ch%3A1337&amp;tr=udp%3A%2F%2Fopen.demonii.com%3A1337&amp;tr=udp%3A%2F%2Ftracker.coppersurfer.tk%3A6969&amp;tr=udp%3A%2F%2Fexodus.desync.com%3A6969","seeders":2,"leechers":1,"uploader":"SaM","files":3,"time":1467068181,"description":"- BollywooD MoviE -\r\n**- AZHAR -**\r\n- 2016 -\r\n** 720p mHD DvDrip / x264 / AAC 5.1 **\r\nEnglish subtitle(s)\r\n \nhttp://extraimago.com/image/aDQA \nhttp://extraimago.com/image/aDQv \nhttp://extraimago.com/image/aDQu \nhttp://extraimago.com/image/aDQV \nhttp://extraimago.com/image/aDQ6 \nhttp://extraimago.com/image/aDQx \nhttp://extraimago.com/image/aDQt \nhttp://extraimago.com/image/aDQo \nhttp://extraimago.com/image/aDQk \nhttp://extraimago.com/image/aDQH \nhttp://extraimago.com/image/aDQF \nhttp://extraimago.com/image/aDQD \nhttp://extraimago.com/image/aDQ5 \nhttp://extraimago.com/image/aDQg\r\n\r\n[ Specs ]\r\nGeneral\r\nSource = DVD9 @ DDR\r\n\r\nFormat : Matroska\r\nFile size : 1.46 GiB\r\nDuration : 2h 11mn\r\nOverall bit rate : 1 592 Kbps\r\nEncoded date : UTC 2016-06-27 19:53:45\r\n\r\nVideo\r\nFormat : AVC\r\nFormat profile :   \r\nFormat settings, CABAC : Yes\r\nFormat settings, ReFrames : 4 frames\r\nDuration : 2h 11mn\r\nBit rate : 1 398 Kbps\r\nWidth : 1 280 pixels\r\nHeight : 544 pixels\r\nDisplay aspect ratio : 2.35:1\r\nFrame rate mode : Constant\r\nFrame rate : 23.976 (24000/1001) fps\r\nBit depth : 8 bits\r\nScan type : Progressive\r\nBits/(Pixel*Frame) : 0.084\r\nStream size : 1.28 GiB (88%)\r\nLanguage : English\r\nDefault : Yes\r\nForced : No\r\nMatrix coefficients : BT.709\r\n\r\nAudio\r\nFormat : AAC\r\nFormat/Info : Advanced Audio Codec\r\nFormat profile : LC\r\nDuration : 2h 11mn\r\nBit rate : 192 Kbps\r\nChannel(s) : 6 channels\r\nChannel positions : Front: L C R, Side: L R, LFE\r\nSampling rate : 48.0 KHz\r\nFrame rate : 46.875 fps (1024 spf)\r\nCompression mode : Lossy\r\nStream size : 180 MiB (12%)\r\nLanguage : Hindi\r\nDefault : Yes\r\nForced : No\r\nChapters: YES\r\nSample: YES - included\r\n\r\nA DDR 8th Anniversary Exclusive Release...!","torrent":{"xt":"urn:btih:b81ba9938df62e96319e703ae46800dbcf936626","amp;dn":"Azhar+%282016%29+720p+mHD+DvDRip+x264+AAC+5.1+ESub+-DDR+-+Exclusive","amp;tr":["udp%3A%2F%2Ftracker.leechers-paradise.org%3A6969","udp%3A%2F%2Fzer0day.ch%3A1337","udp%3A%2F%2Fopen.demonii.com%3A1337","udp%3A%2F%2Ftracker.coppersurfer.tk%3A6969","udp%3A%2F%2Fexodus.desync.com%3A6969"],"infoHash":"b81ba9938df62e96319e703ae46800dbcf936626","infoHashBuffer":{"type":"Buffer","data":[184,27,169,147,141,246,46,150,49,158,112,58,228,104,0,219,207,147,102,38]},"announce":[],"urlList":[]}}